<svg width="158" height="156" viewBox="0 0 158 156" fill="none" xmlns="http://www.w3.org/2000/svg">
<g clip-path="url(#clip0_108_191)">
<path d="M94.9034 34.7341C89.6157 31.4191 85.9253 28.2127 82.7857 25.4412C78.0488 21.2566 76.3964 19.1372 69.952 12.5615C67.4183 9.95298 63.728 6.31189 59.2114 2.01867C58.3852 1.25785 56.898 1.04047 55.9066 1.63826C44.2296 8.26829 32.5526 14.8983 20.8756 21.5827C19.829 22.1805 19.2782 23.6478 19.6087 24.789C21.867 31.5821 24.1253 38.3752 26.3836 45.1682C29.0274 44.5161 31.2306 43.9727 34.3702 42.9401C35.6921 42.5054 37.1242 42.0163 38.6114 41.5272C37.1793 37.1252 35.6921 32.7233 34.2601 28.3214L55.9617 16.0396C60.2579 21.2023 64.1135 25.3325 67.0879 28.3214C71.6044 32.9407 74.744 36.0927 79.5911 39.8968C84.5483 43.7553 88.7344 46.2008 90.2766 47.0703C94.5178 49.5158 100.466 52.4504 108.068 54.7872C108.839 50.5483 109.775 46.9616 111.097 42.5054C104.157 40.1142 98.759 37.1796 94.9034 34.7341Z" fill="#2F80ED"/>
<path d="M48.5807 43.2124C43.0176 46.0383 38.3909 47.6143 34.37 48.9185C28.3112 50.8749 25.6674 51.201 16.6342 53.4291C13.054 54.2987 8.04171 55.6029 1.98289 57.3419C0.881283 57.668 8.40457e-07 58.8093 8.40457e-07 59.9505C8.40457e-07 73.2649 8.40457e-07 86.525 8.40457e-07 99.8394C8.40457e-07 101.035 0.991444 102.231 2.20321 102.502C9.30855 103.97 16.3588 105.437 23.4642 106.904C24.2353 104.35 24.8412 102.122 25.5021 98.9699C25.7775 97.6113 26.108 96.1439 26.3834 94.6223C21.8118 93.6441 17.2401 92.7202 12.6684 91.742L12.7235 67.0696C19.3882 65.9827 24.9513 64.7328 29.0823 63.7003C35.3615 62.1786 39.7679 61.0374 45.4962 58.8092C51.3347 56.4724 55.5759 54.1356 57.1182 53.2661C61.3593 50.8749 66.9224 47.2339 72.816 41.9081C69.4561 39.1365 66.8123 36.528 63.5075 33.1586C57.9444 37.9409 52.6567 41.0929 48.5807 43.2124Z" fill="#2F80ED"/>
<path d="M32.9935 86.7967C32.7181 92.9376 31.7266 97.72 30.8453 101.796C29.5234 107.937 28.532 110.382 25.9432 119.186C24.9518 122.664 23.5748 127.609 22.0325 133.642C21.7571 134.729 22.363 136.087 23.3544 136.631C34.9764 143.261 46.5983 149.891 58.2202 156.521C59.3769 157.173 60.9191 156.847 61.7453 155.869C64.3892 152.554 67.3635 149.13 70.6683 145.652C72.5411 143.695 74.4689 141.848 76.2865 140.109C75.4603 139.239 74.4138 138.207 73.202 137.011C72.3758 136.196 71.4395 135.381 70.3379 134.403C69.2913 133.479 68.1897 132.5 66.9229 131.468C65.2154 132.935 63.2876 134.729 61.4149 136.848C59.9277 138.533 58.6058 140.217 57.5042 141.739C50.2887 137.609 43.0732 133.479 35.8576 129.294C38.2261 123.045 39.9336 117.664 41.0903 113.643C42.8528 107.502 44.1197 103.209 45.001 97.1765C45.8822 91.0356 45.9373 86.2533 45.9373 84.4599C45.9373 79.6232 45.5518 73.0475 43.8443 65.3849C39.7133 66.8523 36.078 67.8305 31.5614 68.9717C32.9935 76.1995 33.1587 82.2861 32.9935 86.7967Z" fill="#2F80ED"/>
<path d="M63.2322 122.175C68.5199 125.49 72.2103 128.696 75.3499 131.467C80.0868 135.652 81.7392 137.771 88.1836 144.347C90.7173 146.956 94.4076 150.597 98.9242 154.89C99.7504 155.651 101.238 155.868 102.229 155.27C113.906 148.64 125.583 142.01 137.26 135.326C138.307 134.728 138.857 133.261 138.527 132.12C136.269 125.327 134.01 118.533 131.752 111.74C129.108 112.393 126.905 112.936 123.765 113.969C122.443 114.403 121.011 114.892 119.524 115.382C120.956 119.783 122.443 124.185 123.876 128.587L102.119 140.923C97.8226 135.761 93.967 131.631 90.9927 128.642C86.4761 124.022 83.3365 120.87 78.4895 117.066C73.5322 113.208 69.3461 110.762 67.8039 109.893C63.5627 107.447 57.6141 104.513 50.013 102.176C49.2419 106.415 48.3055 110.001 46.9836 114.458C53.9237 116.849 59.3766 119.729 63.2322 122.175Z" fill="#2F80ED"/>
<path d="M109.499 114.077C115.062 111.251 119.689 109.675 123.71 108.371C129.769 106.415 132.413 106.089 141.446 103.861C145.026 102.991 150.038 101.687 156.097 99.9478C157.199 99.6217 158.08 98.4805 158.08 97.3392C158.08 84.0248 158.08 70.7648 158.08 57.4503C158.08 56.2548 157.089 55.0592 155.877 54.7875C148.771 53.3202 141.721 51.8529 134.616 50.3856C133.845 52.9397 133.239 55.1679 132.578 58.3199C132.302 59.6785 131.972 61.1458 131.697 62.6674C136.268 63.6456 140.84 64.5695 145.412 65.5477L145.356 90.2201C138.692 91.307 133.129 92.5569 128.998 93.5895C122.718 95.1111 118.312 96.2523 112.584 98.4805C106.745 100.817 102.504 103.154 100.962 104.024C96.7206 106.415 91.1575 110.056 85.2639 115.382C88.6238 118.153 91.2677 120.762 94.5725 124.131C100.191 119.349 105.423 116.142 109.499 114.077Z" fill="#2F80ED"/>
<path d="M125.143 70.1127C125.418 63.9718 126.41 59.1895 127.291 55.1137C128.613 48.9727 129.604 46.5272 132.193 37.7234C133.184 34.2453 134.561 29.3 136.104 23.2677C136.379 22.1809 135.773 20.8222 134.782 20.2788C123.105 13.6488 111.428 6.96439 99.7507 0.334351C98.7042 -0.263439 97.1619 -0.0460611 96.3357 0.877796C91.4887 6.20356 86.6416 11.5293 81.7946 16.8551C83.6673 18.8115 85.2646 20.3875 87.7432 22.5613C88.7897 23.4851 89.8913 24.4633 91.1582 25.4959C94.2978 22.0722 97.4373 18.6485 100.577 15.1704L122.223 27.6153C119.855 33.8649 118.147 39.245 116.991 43.2665C115.228 49.4075 113.961 53.7007 113.08 59.7329C112.199 65.8739 112.144 70.6562 112.144 72.4496C112.144 77.2862 112.529 83.8619 114.237 91.5245C118.368 90.0572 122.003 89.079 126.52 87.9378C125.088 80.7643 124.922 74.6777 125.143 70.1127Z" fill="#2F80ED"/>
</g>
<defs>
<clipPath id="clip0_108_191">
<rect width="158" height="156" fill="white"/>
</clipPath>
</defs>
</svg>
